# xmcd
#
# Track frame offsets: 
#        150
#        19443
#        40437
#        57286
#        69888
#        88161
#        101728
#        126438
#        146673
#        152773
#        174297
#        184399
#        198582
#        215239
#        232873
#        244475
#
# Disc length: 3818 seconds
#
# Revision: 0
# Processed by: cddbd v1.5.2PL0 Copyright (c) Steve Scherf et al.
# Submitted via: ExactAudioCopy v0.99pb4
#
DISCID=f40ee810
DTITLE=Mojo Bruno - Blues For Tomorrow
DYEAR=2008
DGENRE=Blues
TTITLE0=Bluebird
TTITLE1=Good Morning Blues
TTITLE2=Midnight Blue
TTITLE3=Me And My Chauffer
TTITLE4=At Your Door
TTITLE5=Blues For Tomorrow
TTITLE6=Roll And Tumble
TTITLE7=Match Box Blues
TTITLE8=Rock Island Line
TTITLE9=Preachin' Blues
TTITLE10=San Francisco Bay Blues
TTITLE11=Le Cardinal
TTITLE12=Railroad Bill
TTITLE13=I Feel Like Going Home
TTITLE14=Key To The Highway
TTITLE15=John Hardy
EXTD=
EXTT0=
EXTT1=
EXTT2=
EXTT3=
EXTT4=
EXTT5=
EXTT6=
EXTT7=
EXTT8=
EXTT9=
EXTT10=
EXTT11=
EXTT12=
EXTT13=
EXTT14=
EXTT15=
PLAYORDER=
